<svg width="833" height="114" viewBox="0 0 833 114" fill="none" xmlns="http://www.w3.org/2000/svg">
<rect y="7" width="100" height="100" rx="50" fill="url(#paint0_linear_80_341)"/>
<path d="M29.9629 35.0699C40.6625 34.2148 72.6416 38.4584 72.6416 53.1686C72.6415 67.8787 44.8901 78.1367 34.1905 78.9918C23.4909 79.8469 44.9802 67.8796 44.9805 53.1695C44.9805 38.4596 19.2646 35.9251 29.9629 35.0699Z" fill="#FEFEFE"/>
<path d="M146.744 92H137.912V23.264H148.664L182.072 76.736H182.456L182.072 63.488V23.264H190.904V92H181.688L146.744 35.936H146.36L146.744 49.184V92ZM213.588 92H204.756V23.264H213.588V52.736H247.956V23.264H256.788V92H247.956V60.992H213.588V92ZM279.4 31.712V55.904H293.608C297.192 55.904 300.232 54.752 302.728 52.448C305.224 50.08 306.472 47.168 306.472 43.712C306.472 40.512 305.288 37.728 302.92 35.36C300.616 32.928 297.704 31.712 294.184 31.712H279.4ZM279.4 92H270.568V23.264H293.992C299.944 23.264 305 25.248 309.16 29.216C313.384 33.12 315.496 37.952 315.496 43.712C315.496 48.448 313.928 52.672 310.792 56.384C307.72 60.032 303.816 62.368 299.08 63.392L298.888 63.68L318.184 91.616V92H307.72L289.192 64.16H279.4V92ZM334.9 31.712V55.904H349.108C352.692 55.904 355.732 54.752 358.228 52.448C360.724 50.08 361.972 47.168 361.972 43.712C361.972 40.512 360.788 37.728 358.42 35.36C356.116 32.928 353.204 31.712 349.684 31.712H334.9ZM334.9 92H326.068V23.264H349.492C355.444 23.264 360.5 25.248 364.66 29.216C368.884 33.12 370.996 37.952 370.996 43.712C370.996 48.448 369.428 52.672 366.292 56.384C363.22 60.032 359.316 62.368 354.58 63.392L354.388 63.68L373.684 91.616V92H363.22L344.692 64.16H334.9V92ZM442.188 73.664C442.188 79.68 439.98 84.512 435.564 88.16C431.084 91.744 425.644 93.536 419.244 93.536C413.548 93.536 408.524 91.872 404.172 88.544C399.82 85.216 396.812 80.672 395.148 74.912L403.596 71.456C404.172 73.504 404.972 75.36 405.996 77.024C407.02 78.688 408.204 80.128 409.548 81.344C410.956 82.496 412.492 83.424 414.156 84.128C415.82 84.768 417.58 85.088 419.436 85.088C423.468 85.088 426.764 84.064 429.324 82.016C431.884 79.904 433.164 77.12 433.164 73.664C433.164 70.784 432.108 68.32 429.996 66.272C428.012 64.288 424.3 62.368 418.86 60.512C413.356 58.528 409.932 57.184 408.588 56.48C401.292 52.768 397.644 47.296 397.644 40.064C397.644 35.008 399.66 30.688 403.692 27.104C407.788 23.52 412.812 21.728 418.764 21.728C424.012 21.728 428.556 23.072 432.396 25.76C436.236 28.384 438.796 31.68 440.076 35.648L431.82 39.104C431.052 36.544 429.516 34.432 427.212 32.768C424.972 31.04 422.22 30.176 418.956 30.176C415.5 30.176 412.588 31.136 410.22 33.056C407.852 34.848 406.668 37.184 406.668 40.064C406.668 42.432 407.596 44.48 409.452 46.208C411.5 47.936 415.948 49.984 422.796 52.352C429.772 54.72 434.732 57.632 437.676 61.088C440.684 64.48 442.188 68.672 442.188 73.664ZM448.594 68.48C448.594 61.248 450.866 55.264 455.41 50.528C460.018 45.792 465.81 43.424 472.786 43.424C479.762 43.424 485.522 45.792 490.066 50.528C494.674 55.264 496.978 61.248 496.978 68.48C496.978 75.776 494.674 81.76 490.066 86.432C485.522 91.168 479.762 93.536 472.786 93.536C465.81 93.536 460.018 91.168 455.41 86.432C450.866 81.696 448.594 75.712 448.594 68.48ZM457.426 68.48C457.426 73.536 458.898 77.632 461.842 80.768C464.786 83.904 468.434 85.472 472.786 85.472C477.138 85.472 480.786 83.904 483.73 80.768C486.674 77.632 488.146 73.536 488.146 68.48C488.146 63.488 486.674 59.424 483.73 56.288C480.722 53.088 477.074 51.488 472.786 51.488C468.498 51.488 464.85 53.088 461.842 56.288C458.898 59.424 457.426 63.488 457.426 68.48ZM560.811 91.52C558.507 92.352 555.819 92.768 552.747 92.768C548.907 92.768 545.707 91.584 543.147 89.216C540.651 86.848 539.371 83.552 539.307 79.328V53.024H518.187V92H509.355V53.024H500.523V44.96H509.355V38.144C509.355 35.84 509.739 33.728 510.507 31.808C511.339 29.888 512.459 28.256 513.867 26.912C515.275 25.504 516.939 24.416 518.859 23.648C520.843 22.88 522.987 22.496 525.291 22.496C528.491 22.496 531.115 23.04 533.163 24.128L530.763 31.904C529.227 31.136 527.499 30.752 525.579 30.752C523.403 30.752 521.611 31.52 520.203 33.056C518.859 34.528 518.187 36.512 518.187 39.008V44.96H539.307V30.56H548.139V44.96H559.659V53.024H548.139V76.448C548.139 79.584 548.747 81.728 549.963 82.88C551.179 83.968 552.555 84.512 554.091 84.512C554.795 84.512 555.467 84.448 556.107 84.32C556.811 84.128 557.451 83.904 558.027 83.648L560.811 91.52ZM636.125 44.96L620.957 92H611.933L600.221 55.904L588.605 92H579.677L564.509 44.96H573.725L584.189 80.48H584.285L595.901 44.96H605.021L616.637 80.48H616.733L627.101 44.96H636.125ZM647.371 77.6C647.371 79.904 648.331 81.824 650.251 83.36C652.235 84.896 654.539 85.664 657.163 85.664C660.875 85.664 664.171 84.288 667.051 81.536C669.995 78.784 671.467 75.552 671.467 71.84C668.715 69.664 664.875 68.576 659.947 68.576C656.363 68.576 653.355 69.44 650.923 71.168C648.555 72.896 647.371 75.04 647.371 77.6ZM658.795 43.424C665.323 43.424 670.475 45.184 674.251 48.704C678.027 52.16 679.915 56.928 679.915 63.008V92H671.467V85.472H671.083C667.435 90.848 662.571 93.536 656.491 93.536C651.307 93.536 646.955 92 643.435 88.928C639.979 85.856 638.251 82.016 638.251 77.408C638.251 72.544 640.075 68.672 643.723 65.792C647.435 62.912 652.363 61.472 658.507 61.472C663.755 61.472 668.075 62.432 671.467 64.352V62.336C671.467 59.264 670.251 56.672 667.819 54.56C665.387 52.384 662.539 51.296 659.275 51.296C654.347 51.296 650.443 53.376 647.562 57.536L639.787 52.64C644.075 46.496 650.411 43.424 658.795 43.424ZM698.708 92H689.876V44.96H698.324V52.64H698.708C699.604 50.144 701.428 48.032 704.18 46.304C706.996 44.512 709.748 43.616 712.436 43.616C714.996 43.616 717.172 44 718.964 44.768L716.276 53.312C715.188 52.864 713.46 52.64 711.092 52.64C707.764 52.64 704.852 53.984 702.356 56.672C699.924 59.36 698.708 62.496 698.708 66.08V92ZM742.965 93.536C736.053 93.536 730.357 91.168 725.877 86.432C721.397 81.696 719.157 75.712 719.157 68.48C719.157 61.312 721.333 55.36 725.685 50.624C730.037 45.824 735.605 43.424 742.389 43.424C749.365 43.424 754.901 45.696 758.997 50.24C763.157 54.72 765.237 61.024 765.237 69.152L765.141 70.112H728.181C728.309 74.72 729.845 78.432 732.789 81.248C735.733 84.064 739.253 85.472 743.349 85.472C748.981 85.472 753.397 82.656 756.597 77.024L764.469 80.864C762.357 84.832 759.413 87.936 755.637 90.176C751.925 92.416 747.701 93.536 742.965 93.536ZM728.853 62.816H755.829C755.573 59.552 754.229 56.864 751.797 54.752C749.429 52.576 746.229 51.488 742.197 51.488C738.869 51.488 735.989 52.512 733.557 54.56C731.189 56.608 729.621 59.36 728.853 62.816Z" fill="white"/>
<defs>
<linearGradient id="paint0_linear_80_341" x1="50" y1="7" x2="50" y2="107" gradientUnits="userSpaceOnUse">
<stop stop-color="#5750F1"/>
<stop offset="1" stop-color="#5750F1"/>
</linearGradient>
</defs>
</svg>
