<svg width="377" height="114" viewBox="0 0 377 114" fill="none" xmlns="http://www.w3.org/2000/svg">
<rect y="16" width="82" height="82" rx="41" fill="url(#paint0_linear_80_341)"/>
<path d="M119.912 23.264H137.192L161.96 65.696H162.92L161.96 52.448V23.264H176.744V92H161L134.696 47.072H133.736L134.696 60.32V92H119.912V23.264ZM190.6 23.264H205.576V49.76H231.88V23.264H246.856V92H231.88V63.968H205.576V92H190.6V23.264ZM260.725 23.264H286.645C290.357 23.264 293.685 23.84 296.629 24.992C299.573 26.08 302.037 27.616 304.021 29.6C306.069 31.584 307.605 33.952 308.629 36.704C309.717 39.392 310.26 42.336 310.26 45.536C310.26 47.776 309.877 49.856 309.109 51.776C308.405 53.696 307.413 55.488 306.133 57.152C304.917 58.752 303.477 60.192 301.812 61.472C300.149 62.688 298.357 63.712 296.437 64.544V65.408L314.389 91.04V92H297.301L279.925 67.232H275.701V92H260.725V23.264ZM286.645 53.408C289.333 53.408 291.445 52.64 292.981 51.104C294.517 49.504 295.285 47.552 295.285 45.248C295.285 42.944 294.549 41.024 293.077 39.488C291.669 37.888 289.525 37.088 286.645 37.088H275.701V53.408H286.645ZM322.225 23.264H348.145C351.857 23.264 355.185 23.84 358.129 24.992C361.073 26.08 363.537 27.616 365.521 29.6C367.569 31.584 369.105 33.952 370.129 36.704C371.217 39.392 371.76 42.336 371.76 45.536C371.76 47.776 371.377 49.856 370.609 51.776C369.905 53.696 368.913 55.488 367.633 57.152C366.417 58.752 364.977 60.192 363.312 61.472C361.649 62.688 359.857 63.712 357.937 64.544V65.408L375.889 91.04V92H358.801L341.425 67.232H337.201V92H322.225V23.264ZM348.145 53.408C350.833 53.408 352.945 52.64 354.481 51.104C356.017 49.504 356.785 47.552 356.785 45.248C356.785 42.944 356.049 41.024 354.577 39.488C353.169 37.888 351.025 37.088 348.145 37.088H337.201V53.408H348.145Z" fill="white"/>
<defs>
<linearGradient id="paint0_linear_80_341" x1="41" y1="16" x2="41" y2="98" gradientUnits="userSpaceOnUse">
<stop stop-color="#6E9CFF"/>
<stop offset="1" stop-color="#5750F1"/>
</linearGradient>
</defs>
</svg>
